<?xml version="1.0" encoding="UTF-8" standalone="no"?>
<!-- Created with Inkscape (http://www.inkscape.org/) -->

<svg
   width="59.600624mm"
   height="59.600624mm"
   viewBox="0 0 59.600624 59.600624"
   version="1.1"
   id="svg1"
   inkscape:version="1.4.4 (dcaf3e7d9e, 2026-05-05)"
   sodipodi:docname="scoring_rectangle.svg"
   xmlns:inkscape="http://www.inkscape.org/namespaces/inkscape"
   xmlns:sodipodi="http://sodipodi.sourceforge.net/DTD/sodipodi-0.dtd"
   xmlns="http://www.w3.org/2000/svg"
   xmlns:svg="http://www.w3.org/2000/svg">
  <sodipodi:namedview
     id="namedview1"
     pagecolor="#505050"
     bordercolor="#eeeeee"
     borderopacity="1"
     inkscape:showpageshadow="0"
     inkscape:pageopacity="0"
     inkscape:pagecheckerboard="0"
     inkscape:deskcolor="#505050"
     inkscape:document-units="mm"
     inkscape:zoom="3.2302717"
     inkscape:cx="67.022226"
     inkscape:cy="65.938726"
     inkscape:window-width="2743"
     inkscape:window-height="1469"
     inkscape:window-x="0"
     inkscape:window-y="0"
     inkscape:window-maximized="1"
     inkscape:current-layer="layer1" />
  <defs
     id="defs1" />
  <g
     inkscape:label="Layer 1"
     inkscape:groupmode="layer"
     id="layer1"
     transform="translate(-67.964119,-89.046021)">
    <path
       id="rect1"
       style="display:inline;fill:#ffffff;stroke:none;stroke-width:4.28284"
       d="M 69.176448 89.080127 C 68.523703 89.080127 67.998225 89.688575 67.998225 90.444385 L 67.998225 147.24815 C 67.998225 148.00396 68.523703 148.61241 69.176448 148.61241 L 126.35229 148.61241 C 127.00503 148.61241 127.53051 148.00396 127.53051 147.24815 L 127.53051 90.444385 C 127.53051 89.688575 127.00503 89.080127 126.35229 89.080127 L 69.176448 89.080127 z M 95.885412 89.393803 C 96.858373 89.393803 97.589184 90.144302 97.589184 91.151836 C 97.589184 91.621031 97.430994 92.035902 97.139599 92.35693 C 96.828449 92.687836 96.379005 92.88558 95.934505 92.88558 C 95.593722 92.88558 95.263167 92.781862 94.971773 92.584306 L 94.873071 92.821501 L 94.719592 92.821501 L 94.418318 91.77402 L 94.605904 91.71976 C 94.833093 92.045727 94.961752 92.193836 95.124735 92.332125 C 95.381557 92.544497 95.638349 92.648385 95.905049 92.648385 C 96.56686 92.648385 97.006274 92.040784 97.006274 91.117212 C 97.006274 90.228212 96.527366 89.630998 95.816166 89.630998 C 95.490199 89.630998 95.154164 89.768823 94.986242 89.966378 C 94.882528 90.099728 94.828629 90.258029 94.828629 90.440768 C 94.828629 90.746979 94.946842 90.8606 95.31232 90.90999 L 95.31232 91.058301 L 93.964082 91.058301 L 93.964082 90.904822 L 94.052966 90.890353 C 94.314724 90.855781 94.368976 90.766523 94.373876 90.346717 L 94.373876 89.457882 L 94.605904 89.457882 L 94.764034 89.79843 C 95.13939 89.507036 95.455729 89.393803 95.885412 89.393803 z M 108.83966 89.393803 C 109.83732 89.393803 110.59821 90.15418 110.59821 91.151836 C 110.59821 92.119858 109.81274 92.88558 108.82002 92.88558 C 107.80755 92.88558 107.07181 92.144442 107.07181 91.127031 C 107.07181 90.707225 107.19515 90.337125 107.43716 90.040792 C 107.76313 89.640742 108.29639 89.393803 108.83966 89.393803 z M 112.46528 89.393803 C 113.46788 89.393803 114.20832 90.129663 114.20832 91.12238 C 114.20832 91.586635 114.04554 92.020917 113.74427 92.341944 C 113.44299 92.667911 112.97873 92.88558 112.58362 92.88558 C 112.15887 92.88558 111.8575 92.79157 111.56611 92.56932 L 111.46224 92.777059 L 111.29946 92.777059 L 111.06226 91.586434 L 111.22039 91.586434 C 111.36856 91.863012 111.43303 91.966977 111.52683 92.105266 C 111.7639 92.446049 112.12409 92.648385 112.48957 92.648385 C 113.1415 92.648385 113.62541 92.006153 113.62541 91.127031 C 113.62541 90.677592 113.49736 90.287796 113.26523 90.030974 C 113.05286 89.793907 112.70201 89.630998 112.39086 89.630998 C 112.13404 89.630998 111.813 89.744137 111.57593 89.921937 C 111.41295 90.040471 111.31401 90.14933 111.17078 90.361703 L 110.95891 90.243364 C 111.32439 89.675392 111.82323 89.393803 112.46528 89.393803 z M 115.93225 89.393803 C 116.3323 89.393803 116.65314 89.492524 116.95441 89.704896 L 117.04846 89.457882 L 117.23088 89.457882 L 117.55231 90.589079 L 117.36937 90.64799 C 117.16687 90.257818 116.96957 90.030778 116.68311 89.848039 C 116.45592 89.709748 116.19883 89.630998 115.95189 89.630998 C 115.44812 89.630998 115.06305 89.947066 115.06305 90.366871 C 115.06305 90.663205 115.23091 90.811094 115.71986 90.929627 L 116.38184 91.097575 C 116.76707 91.196353 117.02869 91.314989 117.18179 91.468095 C 117.3151 91.601445 117.39883 91.808779 117.39883 92.001396 C 117.39883 92.238463 117.27065 92.480462 117.05828 92.648385 C 116.85578 92.806431 116.59411 92.88558 116.26815 92.88558 C 115.89279 92.88558 115.61092 92.811139 115.33435 92.643217 L 115.27544 92.821501 L 115.09768 92.821501 L 114.7964 91.927499 L 114.95453 91.868071 C 115.30025 92.396532 115.69502 92.648385 116.1741 92.648385 C 116.57909 92.648385 116.8955 92.416069 116.8955 92.119735 C 116.8955 91.853035 116.70278 91.700318 116.22371 91.581784 L 115.60617 91.433472 C 115.07277 91.305061 114.82572 91.171862 114.67755 90.934795 C 114.60352 90.816261 114.55921 90.638492 114.55921 90.455754 C 114.55921 89.858148 115.16178 89.393803 115.93225 89.393803 z M 77.976945 89.457882 L 79.364973 89.457882 L 79.364973 89.610844 L 79.325183 89.616012 C 79.073302 89.650584 78.9743 89.719569 78.9743 89.857858 C 78.9743 89.897369 78.994507 89.981348 79.029077 90.070248 L 79.27609 90.707418 L 80.549914 90.707418 L 80.708044 90.282638 C 80.767314 90.124594 80.802095 89.991366 80.802095 89.917286 C 80.802095 89.828385 80.752668 89.739299 80.678588 89.689909 C 80.624261 89.655339 80.540129 89.635544 80.362329 89.610844 L 80.362329 89.457882 L 81.685762 89.457882 L 81.685762 89.610844 L 81.631502 89.620663 C 81.300596 89.684869 81.221884 89.79879 80.890979 90.64334 L 80.041418 92.821501 L 79.582015 92.821501 L 78.53505 90.174118 C 78.35725 89.714801 78.297973 89.660234 77.976945 89.610844 L 77.976945 89.457882 z M 82.105891 89.457882 L 84.985302 89.457882 L 84.985302 89.610844 L 84.861796 89.625831 C 84.604978 89.655464 84.545785 89.754083 84.540885 90.16895 L 84.540885 92.109917 C 84.545824 92.524783 84.604974 92.623923 84.861796 92.653553 L 84.985302 92.668022 L 84.985302 92.821501 L 82.165319 92.821501 L 81.824255 91.93215 L 81.982385 91.868071 C 82.436763 92.426166 82.811896 92.609111 83.483585 92.609111 C 83.918207 92.609111 84.046858 92.514889 84.046858 92.1988 L 84.046858 91.359575 L 83.671687 91.359575 C 83.251881 91.359575 83.128121 91.492521 83.073791 91.98641 L 82.905843 91.98641 L 82.905843 90.510014 L 83.073791 90.510014 C 83.118241 90.959453 83.301211 91.152085 83.681506 91.147185 L 84.046858 91.147185 L 84.046858 90.104871 C 84.046858 89.946827 84.027229 89.868035 83.982779 89.808765 C 83.903757 89.714926 83.735697 89.670272 83.488753 89.670272 C 82.752858 89.670272 82.347608 89.887816 81.809269 90.579261 L 81.656306 90.510014 L 82.105891 89.457882 z M 85.178055 89.457882 L 86.002811 89.457882 L 87.113855 91.043315 L 87.824922 91.043315 L 87.824922 90.16895 C 87.819983 89.754083 87.760835 89.655461 87.504012 89.625831 L 87.326245 89.610844 L 87.326245 89.457882 L 88.763366 89.457882 L 90.136409 89.457882 L 90.136409 89.610844 L 90.097135 89.616012 C 89.845253 89.650584 89.746252 89.719569 89.746252 89.857858 C 89.746252 89.897369 89.765942 89.981348 89.800512 90.070248 L 90.047526 90.707418 L 91.321866 90.707418 L 91.479996 90.282638 C 91.539266 90.124594 91.573531 89.991366 91.573531 89.917286 C 91.573531 89.828385 91.524104 89.739299 91.450024 89.689909 C 91.395697 89.655339 91.312081 89.635544 91.134281 89.610844 L 91.134281 89.457882 L 92.457714 89.457882 L 92.457714 89.610844 L 92.403454 89.620663 C 92.072549 89.684869 91.993319 89.79879 91.662414 90.64334 L 90.812854 92.821501 L 90.353967 92.821501 L 89.306486 90.174118 C 89.129872 89.717867 89.070527 89.661021 88.755098 89.611878 L 88.63986 89.625831 C 88.383042 89.655464 88.323849 89.754083 88.318949 90.16895 L 88.318949 92.109917 C 88.323888 92.524783 88.383038 92.623923 88.63986 92.653553 L 88.763366 92.668022 L 88.763366 92.821501 L 86.753153 92.821501 C 86.041953 92.821501 85.612654 92.500402 85.612654 91.971941 C 85.612654 91.715118 85.721023 91.482997 85.918579 91.324952 C 86.081562 91.191604 86.220082 91.136858 86.526293 91.092408 L 85.706188 89.932272 C 85.553083 89.734717 85.420061 89.655294 85.178055 89.610844 L 85.178055 89.457882 z M 98.285782 89.457882 L 98.720381 89.457882 L 100.55231 92.450981 L 100.55231 90.16895 C 100.54737 89.759022 100.48823 89.655461 100.2314 89.625831 L 100.0588 89.610844 L 100.0588 89.457882 L 101.27836 89.457882 L 101.27836 89.610844 L 101.15486 89.625831 C 100.89803 89.655464 100.83895 89.754083 100.83395 90.16895 L 100.83395 92.109917 C 100.83889 92.524783 100.89803 92.623923 101.15486 92.653553 L 101.27836 92.668022 L 101.27836 92.821501 L 100.17714 92.821501 L 98.566902 90.159131 L 98.566902 92.109917 C 98.571841 92.519845 98.631508 92.623923 98.88833 92.653553 L 99.060929 92.668022 L 99.060929 92.821501 L 97.841365 92.821501 L 97.841365 92.668022 L 97.964355 92.653553 C 98.221182 92.623919 98.280882 92.524783 98.285782 92.109917 L 98.285782 89.457882 z M 101.59979 89.457882 L 102.93304 89.457882 L 102.93304 89.610844 L 102.83434 89.625831 C 102.57261 89.660403 102.51843 89.749144 102.51343 90.16895 L 102.51343 92.109917 C 102.51837 92.529722 102.57258 92.618983 102.83434 92.653553 L 102.93304 92.668022 L 102.93304 92.821501 L 101.59979 92.821501 L 101.59979 92.668022 L 101.69849 92.653553 C 101.96021 92.61898 102.0144 92.529722 102.0194 92.109917 L 102.0194 90.16895 C 102.01446 89.749144 101.96025 89.660401 101.69849 89.625831 L 101.59979 89.610844 L 101.59979 89.457882 z M 103.1258 89.457882 L 103.95055 89.457882 L 105.0616 91.043315 L 105.77318 91.043315 L 105.77318 90.16895 C 105.76824 89.754083 105.70857 89.655461 105.45175 89.625831 L 105.27399 89.610844 L 105.27399 89.457882 L 106.71111 89.457882 L 106.71111 89.610844 L 106.58812 89.625831 C 106.3313 89.655464 106.27169 89.754083 106.26669 90.16895 L 106.26669 92.109917 C 106.27162 92.524783 106.3313 92.623923 106.58812 92.653553 L 106.71111 92.668022 L 106.71111 92.821501 L 104.70141 92.821501 C 103.99021 92.821501 103.5604 92.500402 103.5604 91.971941 C 103.5604 91.715118 103.66876 91.482997 103.86632 91.324952 C 104.0293 91.191604 104.16783 91.136858 104.47404 91.092408 L 103.65393 89.932272 C 103.50083 89.734717 103.36781 89.655294 103.1258 89.610844 L 103.1258 89.457882 z M 108.83501 89.630998 C 108.11888 89.630998 107.65472 90.203636 107.65472 91.097575 C 107.65472 92.050781 108.10928 92.648385 108.83036 92.648385 C 109.54649 92.648385 110.0153 92.055941 110.0153 91.147185 C 110.0153 90.218674 109.55609 89.630998 108.83501 89.630998 z M 79.364973 90.919808 L 79.92773 92.401372 L 80.476017 90.919808 L 79.364973 90.919808 z M 90.136409 90.919808 L 90.699682 92.401372 L 91.247452 90.919808 L 90.136409 90.919808 z M 86.995515 91.255705 C 86.718937 91.255705 86.540847 91.300012 86.397619 91.408667 C 86.239576 91.537078 86.145955 91.734476 86.145955 91.951787 C 86.145955 92.396287 86.46204 92.61893 87.094217 92.61893 C 87.35104 92.61893 87.597985 92.589255 87.696765 92.539865 C 87.785666 92.500354 87.824922 92.436129 87.824922 92.327474 L 87.824922 91.255705 L 86.995515 91.255705 z M 104.94326 91.255705 C 104.66669 91.255705 104.48911 91.300012 104.34588 91.408667 C 104.18779 91.537078 104.0937 91.734476 104.0937 91.951787 C 104.0937 92.396287 104.40978 92.61893 105.04196 92.61893 C 105.29878 92.61893 105.54571 92.589255 105.64451 92.539865 C 105.73342 92.500354 105.77318 92.436129 105.77318 92.327474 L 105.77318 91.255705 L 104.94326 91.255705 z M 73.923445 93.946497 L 121.60581 93.946497 C 122.19229 93.946497 122.66414 94.493172 122.66414 95.172262 L 122.66414 142.52028 C 122.66414 143.19937 122.19229 143.74604 121.60581 143.74604 L 73.923445 143.74604 C 73.336958 143.74604 72.864595 143.19937 72.864595 142.52028 L 72.864595 95.172262 C 72.864595 94.493172 73.336958 93.946497 73.923445 93.946497 z M 69.297371 99.058847 L 69.356799 99.241264 C 68.966627 99.443759 68.739587 99.641588 68.556848 99.928044 C 68.418557 100.15523 68.33929 100.4118 68.33929 100.65875 C 68.33929 101.16251 68.655357 101.54758 69.075162 101.54758 C 69.371496 101.54758 69.519901 101.37973 69.638435 100.89078 L 69.806384 100.22932 C 69.905164 99.84408 70.023798 99.581956 70.176904 99.42885 C 70.310254 99.295499 70.517588 99.211809 70.710205 99.211809 C 70.947272 99.211809 71.189272 99.339984 71.357194 99.552356 C 71.515241 99.754851 71.594388 100.01704 71.594388 100.34301 C 71.594388 100.71836 71.519948 100.9997 71.352026 101.27628 L 71.529793 101.33571 L 71.529793 101.51348 L 70.635791 101.81475 L 70.576879 101.65662 C 71.10534 101.3109 71.357194 100.91561 71.357194 100.43654 C 71.357194 100.03155 71.124878 99.715654 70.828544 99.715654 C 70.561844 99.715654 70.408609 99.908365 70.290075 100.38745 L 70.142281 101.00446 C 70.01387 101.53786 69.880152 101.78492 69.643086 101.93309 C 69.524552 102.00709 69.346785 102.05143 69.164046 102.05143 C 68.566441 102.05143 68.102612 101.44886 68.102612 100.67839 C 68.102612 100.27834 68.201332 99.957498 68.413704 99.656226 L 68.166691 99.562175 L 68.166691 99.379757 L 69.297371 99.058847 z M 126.97757 99.058847 L 127.13105 99.058847 L 127.13105 100.44688 L 126.97757 100.44688 L 126.97292 100.40708 C 126.93834 100.15522 126.86885 100.05672 126.73056 100.05672 C 126.69105 100.05672 126.60707 100.07638 126.51817 100.11098 L 125.88151 100.35799 L 125.88151 101.63182 L 126.30578 101.78995 C 126.46382 101.84915 126.59755 101.884 126.67165 101.884 C 126.76055 101.884 126.84911 101.83459 126.89851 101.76049 C 126.93311 101.70616 126.95287 101.62203 126.97757 101.44423 L 127.13053 101.44423 L 127.13053 102.76766 L 126.97757 102.76766 L 126.96775 102.7134 C 126.90354 102.3825 126.78963 102.30379 125.94508 101.97288 L 123.76743 101.12332 L 123.76743 100.66392 L 126.41481 99.616952 C 126.87413 99.439152 126.92817 99.379875 126.97757 99.058847 z M 125.66861 100.44688 L 124.18704 101.00963 L 125.66861 101.55792 L 125.66861 100.44688 z M 69.831188 102.40231 C 70.295444 102.40231 70.729724 102.56509 71.050752 102.86637 C 71.376719 103.16764 71.594388 103.6319 71.594388 104.02702 C 71.594388 104.45176 71.500378 104.75313 71.278129 105.04453 L 71.485351 105.1484 L 71.485351 105.31118 L 70.295243 105.54837 L 70.295243 105.39024 C 70.571821 105.24207 70.675786 105.17812 70.814074 105.08432 C 71.154858 104.84725 71.357194 104.48654 71.357194 104.12107 C 71.357194 103.46913 70.714962 102.98522 69.835839 102.98522 C 69.3864 102.98522 68.996087 103.11328 68.739265 103.34541 C 68.502198 103.55778 68.33929 103.90862 68.33929 104.21977 C 68.33929 104.4766 68.452945 104.79764 68.630745 105.03471 C 68.749278 105.19769 68.858139 105.29662 69.070511 105.43985 L 68.951656 105.65224 C 68.383684 105.28676 68.102612 104.78793 68.102612 104.14587 C 68.102612 103.14327 68.838471 102.40231 69.831188 102.40231 z M 126.0784 102.73821 L 127.13053 103.18779 L 127.13053 106.0672 L 126.97757 106.0672 L 126.96258 105.9437 C 126.93294 105.68687 126.83434 105.62779 126.41947 105.62279 L 124.4785 105.62279 C 124.06363 105.62773 123.96498 105.68687 123.93538 105.9437 L 123.92039 106.0672 L 123.76743 106.0672 L 123.76743 103.24722 L 124.65627 102.90616 L 124.72034 103.06429 C 124.16225 103.51867 123.9793 103.8938 123.9793 104.56549 C 123.9793 105.00011 124.07353 105.12876 124.38962 105.12876 L 125.22936 105.12876 L 125.22936 104.75307 C 125.22936 104.33327 125.0959 104.20999 124.60201 104.15569 L 124.60201 103.98774 L 126.0784 103.98774 L 126.0784 104.15569 C 125.62896 104.20014 125.43623 104.38312 125.44123 104.76341 L 125.44123 105.12876 L 126.48354 105.12876 C 126.64158 105.12876 126.72087 105.10908 126.78017 105.06468 C 126.87406 104.98566 126.91814 104.8176 126.91814 104.57065 C 126.91814 103.83476 126.70112 103.42951 126.00967 102.89117 L 126.0784 102.73821 z M 69.860644 106.01243 C 70.828666 106.01243 71.594388 106.79789 71.594388 107.79061 C 71.594388 108.80308 70.853251 109.53883 69.835839 109.53883 C 69.416034 109.53883 69.045935 109.41548 68.749601 109.17347 C 68.349551 108.84751 68.102612 108.31426 68.102612 107.77098 C 68.102612 106.77332 68.862988 106.01243 69.860644 106.01243 z M 126.97757 106.25996 L 127.13053 106.25996 L 127.13053 107.08471 L 125.5451 108.19576 L 125.5451 108.90682 L 126.41947 108.90682 C 126.83434 108.90188 126.93298 108.84273 126.96258 108.58591 L 126.97757 108.40815 L 127.13053 108.40815 L 127.13053 109.8308 L 127.13105 109.8308 L 127.13105 111.21831 L 126.97757 111.21831 L 126.97292 111.17904 C 126.93834 110.92718 126.86885 110.82815 126.73056 110.82815 C 126.69105 110.82815 126.60707 110.84781 126.51817 110.88241 L 125.88151 111.12943 L 125.88151 112.40377 L 126.30578 112.5619 C 126.46382 112.6211 126.59755 112.65543 126.67165 112.65543 C 126.76055 112.65543 126.84911 112.60603 126.89851 112.53193 C 126.93311 112.47761 126.95287 112.39398 126.97757 112.21618 L 127.13053 112.21618 L 127.13053 113.53962 L 126.97757 113.53962 L 126.96775 113.48536 C 126.90354 113.15446 126.78963 113.07522 125.94508 112.74432 L 123.76743 111.89476 L 123.76743 111.43587 L 126.41481 110.3889 C 126.8706 110.21247 126.92742 110.15262 126.97654 109.83803 L 126.97654 109.83752 L 126.96258 109.72176 C 126.93294 109.46493 126.83434 109.40585 126.41947 109.40085 L 124.4785 109.40085 C 124.06363 109.40579 123.96498 109.46493 123.93538 109.72176 L 123.92039 109.84527 L 123.76743 109.84527 L 123.76743 107.83506 C 123.76743 107.12386 124.08853 106.69456 124.61699 106.69456 C 124.87382 106.69456 125.10594 106.80292 125.26398 107.00048 C 125.39731 107.16346 125.45161 107.30199 125.49601 107.6082 L 126.65666 106.78809 C 126.85421 106.63499 126.93317 106.50197 126.97757 106.25996 z M 69.855476 106.59534 C 68.926965 106.59534 68.33929 107.05455 68.33929 107.77563 C 68.33929 108.49177 68.912445 108.95592 69.806384 108.95592 C 70.75959 108.95592 71.357194 108.50187 71.357194 107.78079 C 71.357194 107.06465 70.764232 106.59534 69.855476 106.59534 z M 124.63663 107.22786 C 124.19213 107.22786 123.97 107.54395 123.97 108.17612 C 123.97 108.43295 123.99915 108.67987 124.04855 108.77867 C 124.08806 108.86758 124.15229 108.90682 124.26094 108.90682 L 125.33271 108.90682 L 125.33271 108.07742 C 125.33271 107.80084 125.2884 107.62275 125.17975 107.47952 C 125.05134 107.32144 124.85394 107.22786 124.63663 107.22786 z M 68.166691 109.89953 L 68.319653 109.89953 L 68.334639 110.02304 C 68.364269 110.27987 68.462891 110.33895 68.877758 110.34395 L 70.818725 110.34395 C 71.233592 110.33895 71.332214 110.27985 71.361844 110.02304 L 71.376831 109.89953 L 71.529793 109.89953 L 71.529793 111.90974 C 71.529793 112.62094 71.208694 113.05024 70.680232 113.05024 C 70.42341 113.05024 70.191287 112.94187 70.033243 112.74432 C 69.899895 112.58133 69.845666 112.44282 69.801216 112.1366 L 68.640563 112.95671 C 68.443007 113.10982 68.364103 113.24284 68.319653 113.48484 L 68.166691 113.48484 L 68.166691 112.66008 L 69.752124 111.54904 L 69.752124 110.83797 L 68.877758 110.83797 C 68.462891 110.84297 68.364269 110.90207 68.334639 111.15888 L 68.319653 111.33665 L 68.166691 111.33665 L 68.166691 109.89953 z M 69.964514 110.83797 L 69.964514 111.66738 C 69.964514 111.94396 70.008824 112.12205 70.117476 112.26528 C 70.245887 112.42336 70.443284 112.51694 70.660595 112.51694 C 71.105095 112.51694 71.327738 112.20086 71.327738 111.56868 C 71.327738 111.31186 71.298063 111.06493 71.248673 110.96613 C 71.209163 110.87723 71.144938 110.83797 71.036283 110.83797 L 69.964514 110.83797 z M 125.66861 111.21831 L 124.18704 111.78158 L 125.66861 112.32935 L 125.66861 111.21831 z M 68.166691 113.67759 L 68.319653 113.67759 L 68.334639 113.77629 C 68.369209 114.03802 68.457952 114.09272 68.877758 114.09772 L 70.818725 114.09772 C 71.238531 114.09272 71.327274 114.03802 71.361844 113.77629 L 71.376831 113.67759 L 71.529793 113.67759 L 71.529793 115.01136 L 71.376831 115.01136 L 71.361844 114.91214 C 71.327274 114.65041 71.238531 114.59623 70.818725 114.59123 L 68.877758 114.59123 C 68.457952 114.59623 68.369209 114.65043 68.334639 114.91214 L 68.319653 115.01136 L 68.166691 115.01136 L 68.166691 113.67759 z M 125.53063 115.04598 L 125.68359 115.04598 L 125.69858 115.13487 C 125.73315 115.3966 125.82189 115.45078 126.2417 115.45578 L 127.13053 115.45578 L 127.13053 115.68781 L 126.78999 115.84594 C 127.08138 116.2213 127.19461 116.53763 127.19461 116.96731 C 127.19461 117.94027 126.44411 118.67109 125.43658 118.67109 C 124.96739 118.67109 124.55252 118.5129 124.23149 118.2215 C 123.90059 117.91035 123.70284 117.46091 123.70284 117.01641 C 123.70284 116.67563 123.80656 116.34506 124.00411 116.05367 L 123.76743 115.95497 L 123.76743 115.80149 L 124.8144 115.50022 L 124.86866 115.68781 C 124.54269 115.915 124.39457 116.04366 124.25629 116.20664 C 124.04391 116.46347 123.94003 116.72025 123.94003 116.98695 C 123.94003 117.64876 124.54763 118.08818 125.4712 118.08818 C 126.3602 118.08818 126.95793 117.60927 126.95793 116.89807 C 126.95793 116.5721 126.8196 116.23607 126.62204 116.06814 C 126.48869 115.9644 126.33039 115.91053 126.14765 115.91053 C 125.84144 115.91053 125.72783 116.02874 125.67843 116.39422 L 125.53063 116.39422 L 125.53063 115.04598 z M 68.166691 115.33227 L 68.319653 115.33227 L 68.334639 115.45578 C 68.364269 115.7126 68.462891 115.77169 68.877758 115.77669 L 70.818725 115.77669 C 71.233592 115.77169 71.332214 115.71259 71.361844 115.45578 L 71.376831 115.33227 L 71.529793 115.33227 L 71.529793 116.4335 L 68.86794 118.04373 L 70.818725 118.04373 C 71.228653 118.03873 71.332214 117.97963 71.361844 117.72282 L 71.376831 117.54971 L 71.529793 117.54971 L 71.529793 118.76979 L 71.376831 118.76979 L 71.361844 118.64628 C 71.332214 118.38945 71.233592 118.33037 70.818725 118.32537 L 68.166691 118.32537 L 68.166691 117.89077 L 71.15979 116.05833 L 68.877758 116.05833 C 68.46783 116.06333 68.364269 116.12243 68.334639 116.37924 L 68.319653 116.55184 L 68.166691 116.55184 L 68.166691 115.33227 z M 123.76743 118.92327 L 123.92039 118.92327 L 123.93538 119.04626 C 123.96501 119.30308 124.06363 119.36268 124.4785 119.36768 L 127.13053 119.36768 L 127.13053 119.80228 L 124.13743 121.63421 L 126.41947 121.63421 C 126.8294 121.62927 126.93298 121.57012 126.96258 121.3133 L 126.97757 121.1407 L 127.13053 121.1407 L 127.13053 122.36027 L 126.97757 122.36027 L 126.96258 122.23676 C 126.93294 121.97993 126.83434 121.92085 126.41947 121.91585 L 124.4785 121.91585 C 124.06363 121.92079 123.96498 121.97994 123.93538 122.23676 L 123.92039 122.36027 L 123.76743 122.36027 L 123.76743 121.25904 L 126.42928 119.6488 L 124.4785 119.6488 C 124.06857 119.65374 123.96498 119.71341 123.93538 119.97023 L 123.92039 120.14283 L 123.76743 120.14283 L 123.76743 118.92327 z M 69.860644 119.02145 C 70.329838 119.02145 70.74471 119.17965 71.065738 119.47104 C 71.396644 119.78219 71.594388 120.23163 71.594388 120.67613 C 71.594388 121.01692 71.49067 121.34746 71.293115 121.63886 L 71.529793 121.73808 L 71.529793 121.89104 L 70.482828 122.19232 L 70.428568 122.00473 C 70.754535 121.77755 70.902646 121.64888 71.040934 121.4859 C 71.253307 121.22908 71.357194 120.97229 71.357194 120.70559 C 71.357194 120.04378 70.749594 119.60436 69.826021 119.60436 C 68.937021 119.60436 68.33929 120.08327 68.33929 120.79447 C 68.33929 121.12043 68.477632 121.45647 68.675187 121.62439 C 68.808537 121.72813 68.966837 121.78252 69.149576 121.78252 C 69.455787 121.78252 69.569408 121.6638 69.618798 121.29832 L 69.766593 121.29832 L 69.766593 122.64655 L 69.613631 122.64655 L 69.598645 122.55767 C 69.564075 122.29594 69.47533 122.24176 69.055525 122.23676 L 68.166691 122.23676 L 68.166691 122.00473 L 68.507238 121.8466 C 68.215843 121.47124 68.102612 121.15491 68.102612 120.72522 C 68.102612 119.75226 68.85311 119.02145 69.860644 119.02145 z M 123.76743 122.68169 L 123.92039 122.68169 L 123.93538 122.7804 C 123.96995 123.04213 124.05869 123.09631 124.4785 123.10131 L 126.41947 123.10131 C 126.83928 123.09637 126.92798 123.04216 126.96258 122.7804 L 126.97757 122.68169 L 127.13053 122.68169 L 127.13053 124.01495 L 126.97757 124.01495 L 126.96258 123.91624 C 126.92801 123.65451 126.83928 123.60033 126.41947 123.59533 L 124.4785 123.59533 C 124.05869 123.60027 123.96998 123.65448 123.93538 123.91624 L 123.92039 124.01495 L 123.76743 124.01495 L 123.76743 122.68169 z M 68.166691 124.15292 L 68.319653 124.15292 L 68.329471 124.20718 C 68.393681 124.53809 68.507598 124.61731 69.352148 124.94822 L 71.529793 125.79778 L 71.529793 126.25719 L 68.882926 127.30415 C 68.426668 127.48077 68.36983 127.5401 68.320686 127.85554 L 68.334639 127.97078 C 68.364269 128.22761 68.462891 128.28669 68.877758 128.29169 L 70.818725 128.29169 C 71.233592 128.28669 71.332214 128.22759 71.361844 127.97078 L 71.376831 127.84727 L 71.529793 127.84727 L 71.529793 129.85748 C 71.529793 130.56868 71.208694 130.9985 70.680232 130.9985 C 70.42341 130.9985 70.191287 130.88961 70.033243 130.69206 C 69.899895 130.52907 69.845666 130.39108 69.801216 130.08486 L 68.640563 130.90445 C 68.443007 131.05756 68.364103 131.1911 68.319653 131.4331 L 68.166691 131.4331 L 68.166691 130.60834 L 69.752124 129.49678 L 69.752124 128.78571 L 68.877758 128.78571 C 68.462891 128.79071 68.364269 128.84981 68.334639 129.10662 L 68.319653 129.28439 L 68.166691 129.28439 L 68.166691 127.86226 L 68.166691 126.47423 L 68.319653 126.47423 L 68.32482 126.51402 C 68.35939 126.76588 68.428377 126.86438 68.566666 126.86438 C 68.606176 126.86438 68.690156 126.84472 68.779056 126.81012 L 69.416227 126.56311 L 69.416227 125.28877 L 68.991446 125.13116 C 68.833402 125.07196 68.700174 125.03711 68.626094 125.03711 C 68.537194 125.03711 68.448108 125.08651 68.398718 125.16061 C 68.364148 125.21491 68.344333 125.29907 68.319653 125.47687 L 68.166691 125.47687 L 68.166691 124.15292 z M 126.97757 124.2077 L 127.13053 124.2077 L 127.13053 125.03245 L 125.5451 126.1435 L 125.5451 126.85508 L 126.41947 126.85508 C 126.83434 126.85014 126.93298 126.79048 126.96258 126.53366 L 126.97757 126.35589 L 127.13053 126.35589 L 127.13053 127.79301 L 126.97757 127.79301 L 126.96258 127.67002 C 126.93294 127.41319 126.83434 127.35359 126.41947 127.34859 L 124.4785 127.34859 C 124.06363 127.35353 123.96498 127.41319 123.93538 127.67002 L 123.92039 127.79301 L 123.76743 127.79301 L 123.76743 125.78331 C 123.76743 125.07211 124.08853 124.6423 124.61699 124.6423 C 124.87382 124.6423 125.10594 124.75066 125.26398 124.94822 C 125.39731 125.1112 125.45161 125.24973 125.49601 125.55594 L 126.65666 124.73583 C 126.85421 124.58273 126.93317 124.44971 126.97757 124.2077 z M 124.63663 125.1756 C 124.19213 125.1756 123.97 125.49168 123.97 126.12386 C 123.97 126.38069 123.99915 126.62761 124.04855 126.72641 C 124.08806 126.81532 124.15229 126.85508 124.26094 126.85508 L 125.33271 126.85508 L 125.33271 126.02516 C 125.33271 125.74858 125.2884 125.57101 125.17975 125.42778 C 125.05134 125.2697 124.85394 125.1756 124.63663 125.1756 z M 69.628617 125.36318 L 69.628617 126.47423 L 71.11018 125.91147 L 69.628617 125.36318 z M 125.46138 128.15371 C 125.88118 128.15371 126.25129 128.27705 126.54762 128.51906 C 126.94767 128.84503 127.19461 129.37828 127.19461 129.92156 C 127.19461 130.91921 126.43424 131.68011 125.43658 131.68011 C 124.46856 131.68011 123.70284 130.89465 123.70284 129.90193 C 123.70284 128.88946 124.44396 128.15371 125.46138 128.15371 z M 125.49084 128.73662 C 124.53763 128.73662 123.94003 129.19118 123.94003 129.91226 C 123.94003 130.6284 124.53299 131.0972 125.44175 131.0972 C 126.37026 131.0972 126.95793 130.63798 126.95793 129.91691 C 126.95793 129.20077 126.38478 128.73662 125.49084 128.73662 z M 69.964514 128.78571 L 69.964514 129.61564 C 69.964514 129.89222 70.008824 130.06979 70.117476 130.21302 C 70.245887 130.3711 70.443284 130.4652 70.660595 130.4652 C 71.105095 130.4652 71.327738 130.1486 71.327738 129.51642 C 71.327738 129.2596 71.298063 129.01267 71.248673 128.91387 C 71.209163 128.82497 71.144938 128.78571 71.036283 128.78571 L 69.964514 128.78571 z M 68.166691 131.62533 L 68.319653 131.62533 L 68.334639 131.74884 C 68.364269 132.00567 68.462891 132.06527 68.877758 132.07027 L 70.818725 132.07027 C 71.233592 132.06527 71.332214 132.00567 71.361844 131.74884 L 71.376831 131.62533 L 71.529793 131.62533 L 71.529793 134.44583 L 70.640958 134.78638 L 70.576879 134.62825 C 71.134973 134.17387 71.317403 133.79874 71.317403 133.12705 C 71.317403 132.69243 71.223703 132.56378 70.907609 132.56378 L 70.067867 132.56378 L 70.067867 132.93947 C 70.067867 133.35928 70.201329 133.48255 70.695218 133.53685 L 70.695218 133.70479 L 69.218823 133.70479 L 69.218823 133.53685 C 69.668262 133.49245 69.860376 133.30995 69.855476 132.92965 L 69.855476 132.56378 L 68.81368 132.56378 C 68.655636 132.56378 68.576327 132.58397 68.517057 132.62837 C 68.423217 132.70737 68.379081 132.87494 68.379081 133.12188 C 68.379081 133.85778 68.596108 134.26303 69.287552 134.80137 L 69.218823 134.95433 L 68.166691 134.50474 L 68.166691 131.62533 z M 126.34557 132.04081 C 126.91354 132.40629 127.19461 132.90512 127.19461 133.54718 C 127.19461 134.54977 126.45876 135.29023 125.46604 135.29023 C 125.00179 135.29023 124.5675 135.12744 124.24647 134.82617 C 123.9205 134.5249 123.70284 134.06063 123.70284 133.66552 C 123.70284 133.24077 123.79685 132.9394 124.0191 132.64801 L 123.81187 132.54414 L 123.81187 132.38136 L 125.00198 132.14417 L 125.00198 132.3023 C 124.7254 132.45046 124.62144 132.51494 124.48315 132.60874 C 124.14237 132.8458 123.94003 133.20599 123.94003 133.57147 C 123.94003 134.2234 124.58225 134.70732 125.46138 134.70732 C 125.91081 134.70732 126.30114 134.57925 126.55796 134.34713 C 126.79503 134.13475 126.95793 133.78392 126.95793 133.47277 C 126.95793 133.21595 126.84428 132.89489 126.66648 132.65783 C 126.54795 132.49484 126.43909 132.39642 126.22671 132.2532 L 126.34557 132.04081 z M 68.166691 134.92487 L 68.319653 134.92487 L 68.329471 134.97913 C 68.393681 135.31004 68.507598 135.38876 69.352148 135.71966 L 71.529793 136.56922 L 71.529793 137.02862 L 68.882926 138.07559 C 68.423609 138.25339 68.369043 138.31266 68.319653 138.63369 L 68.166691 138.63369 L 68.166691 137.24618 L 68.319653 137.24618 L 68.32482 137.28545 C 68.35939 137.53731 68.428377 137.63634 68.566666 137.63634 C 68.606176 137.63634 68.690156 137.61668 68.779056 137.58208 L 69.416227 137.33506 L 69.416227 136.06072 L 68.991446 135.90259 C 68.833402 135.84339 68.700174 135.80906 68.626094 135.80906 C 68.537194 135.80906 68.448108 135.85846 68.398718 135.93256 C 68.364148 135.98686 68.344333 136.07051 68.319653 136.24831 L 68.166691 136.24831 L 68.166691 134.92487 z M 126.13318 135.64111 C 126.73079 135.64111 127.19461 136.24369 127.19461 137.01415 C 127.19461 137.4142 127.09589 137.73504 126.88352 138.03631 L 127.13053 138.13036 L 127.13053 138.31278 L 125.99985 138.63421 L 125.94043 138.45127 C 126.3306 138.24878 126.55764 138.05147 126.74038 137.76501 C 126.87869 137.53783 126.95793 137.28073 126.95793 137.03379 C 126.95793 136.53002 126.64187 136.14495 126.22206 136.14495 C 125.92573 136.14495 125.77732 136.31281 125.65879 136.80176 L 125.49084 137.46374 C 125.39206 137.84898 125.27343 138.11059 125.12032 138.26369 C 124.98697 138.397 124.77964 138.48073 124.58702 138.48073 C 124.34995 138.48073 124.10795 138.35255 123.94003 138.14018 C 123.78196 137.93769 123.70284 137.67601 123.70284 137.35005 C 123.70284 136.97469 123.77727 136.69284 123.9452 136.41626 L 123.76743 136.35735 L 123.76743 136.17958 L 124.66092 135.8783 L 124.72034 136.03643 C 124.19188 136.38216 123.94003 136.77693 123.94003 137.256 C 123.94003 137.66099 124.17234 137.9774 124.46868 137.9774 C 124.73538 137.9774 124.88861 137.78468 125.00715 137.30561 L 125.15494 136.68807 C 125.28336 136.15467 125.41708 135.90762 125.65414 135.75945 C 125.77268 135.68542 125.95045 135.64111 126.13318 135.64111 z M 69.628617 136.13462 L 69.628617 137.24618 L 71.11018 136.68291 L 69.628617 136.13462 z M 79.261104 144.87827 C 79.63646 144.87827 79.917802 144.9527 80.19438 145.12063 L 80.253808 144.94287 L 80.431575 144.94287 L 80.732849 145.83687 L 80.574719 145.89578 C 80.228996 145.36732 79.83371 145.11547 79.354638 145.11547 C 78.949649 145.11547 78.633752 145.34779 78.633752 145.64412 C 78.633752 145.91082 78.826474 146.06405 79.305546 146.18259 L 79.922562 146.33038 C 80.455962 146.4588 80.703021 146.59251 80.851188 146.82957 C 80.925271 146.94811 80.969527 147.12587 80.969527 147.30861 C 80.969527 147.90621 80.36695 148.37057 79.596484 148.37057 C 79.196433 148.37057 78.875597 148.27133 78.574324 148.05896 L 78.48079 148.30597 L 78.297855 148.30597 L 77.976945 147.17529 L 78.159362 147.11586 C 78.361856 147.50603 78.559687 147.73307 78.846142 147.91581 C 79.073331 148.05412 79.329902 148.13337 79.576847 148.13337 C 80.080614 148.13337 80.466198 147.8173 80.466198 147.3975 C 80.466198 147.10116 80.297824 146.95275 79.808874 146.83422 L 79.147416 146.66628 C 78.762182 146.5675 78.500054 146.44887 78.346948 146.29576 C 78.213597 146.16241 78.129907 145.95508 78.129907 145.76246 C 78.129907 145.5254 78.258081 145.28339 78.470454 145.11547 C 78.672948 144.9574 78.935137 144.87827 79.261104 144.87827 z M 82.945117 144.87827 C 83.369861 144.87827 83.671231 144.97228 83.962626 145.19453 L 84.066495 144.98731 L 84.229276 144.98731 L 84.466471 146.17742 L 84.308341 146.17742 C 84.160175 145.90084 84.096257 145.79738 84.002417 145.6591 C 83.76535 145.31831 83.404646 145.11547 83.039168 145.11547 C 82.387235 145.11547 81.90332 145.75769 81.90332 146.63682 C 81.90332 147.08625 82.031377 147.47657 82.263505 147.73339 C 82.475877 147.97046 82.82672 148.13337 83.13787 148.13337 C 83.394693 148.13337 83.71574 148.01972 83.952807 147.84192 C 84.115791 147.72338 84.214722 147.61453 84.35795 147.40215 L 84.570341 147.521 C 84.204864 148.08897 83.706029 148.37057 83.063973 148.37057 C 82.061378 148.37057 81.32041 147.63419 81.32041 146.64147 C 81.32041 146.17722 81.483192 145.74294 81.784464 145.42191 C 82.085737 145.09594 82.550005 144.87827 82.945117 144.87827 z M 86.708711 144.87827 C 87.721183 144.87827 88.456925 145.6194 88.456925 146.63682 C 88.456925 147.05662 88.333579 147.42725 88.091573 147.72358 C 87.765606 148.12363 87.232352 148.37057 86.689074 148.37057 C 85.691419 148.37057 84.930525 147.60968 84.930525 146.61202 C 84.930525 145.644 85.715994 144.87827 86.708711 144.87827 z M 99.59423 144.87827 C 99.935013 144.87827 100.26608 144.982 100.55748 145.17955 L 100.65618 144.94287 L 100.80914 144.94287 L 101.11042 145.98983 L 100.92283 146.04409 C 100.69564 145.71812 100.56698 145.57002 100.404 145.43173 C 100.14718 145.21935 99.890385 145.11547 99.623685 145.11547 C 98.961874 145.11547 98.52246 145.72307 98.52246 146.64664 C 98.52246 147.53564 99.001369 148.13337 99.712569 148.13337 C 100.03853 148.13337 100.37457 147.99502 100.54249 147.79747 C 100.64623 147.66412 100.70062 147.50582 100.70062 147.32308 C 100.70062 147.01687 100.58189 146.90326 100.21641 146.85386 L 100.21641 146.70607 L 101.56465 146.70607 L 101.56465 146.85903 L 101.47577 146.87402 C 101.21404 146.90859 101.15986 146.99733 101.15486 147.41714 L 101.15486 148.30597 L 100.92283 148.30597 L 100.7647 147.96542 C 100.38934 148.25681 100.07352 148.37057 99.643839 148.37057 C 98.670878 148.37057 97.93955 147.61956 97.93955 146.61202 C 97.93955 146.14283 98.09774 145.72795 98.389135 145.40692 C 98.700285 145.07602 99.14973 144.87827 99.59423 144.87827 z M 88.817626 144.94287 L 90.82784 144.94287 C 91.53904 144.94287 91.968855 145.26396 91.968855 145.79243 C 91.968855 146.04925 91.85997 146.28138 91.662414 146.43942 C 91.499431 146.57275 91.36091 146.62694 91.054699 146.67144 L 91.874804 147.8321 C 92.027909 148.02965 92.161448 148.10851 92.403454 148.15301 L 92.403454 148.30597 L 91.578698 148.30597 L 90.467138 146.72054 L 89.75607 146.72054 L 89.75607 147.5949 C 89.761009 148.00977 89.820159 148.10842 90.076981 148.13802 L 90.254748 148.15301 L 90.254748 148.30597 L 88.817626 148.30597 L 88.817626 148.15301 L 88.941133 148.13802 C 89.197951 148.10839 89.257144 148.00977 89.262044 147.5949 L 89.262044 145.65394 C 89.257105 145.23907 89.197955 145.14042 88.941133 145.11082 L 88.817626 145.09583 L 88.817626 144.94287 z M 92.59569 144.94287 L 93.929459 144.94287 L 93.929459 145.09583 L 93.830757 145.11082 C 93.568999 145.14539 93.51423 145.23413 93.50933 145.65394 L 93.50933 147.5949 C 93.514269 148.01471 93.568996 148.10342 93.830757 148.13802 L 93.929459 148.15301 L 93.929459 148.30597 L 92.59569 148.30597 L 92.59569 148.15301 L 92.694392 148.13802 C 92.95615 148.10345 93.01092 148.01471 93.01582 147.5949 L 93.01582 145.65394 C 93.010881 145.23413 92.956154 145.14542 92.694392 145.11082 L 92.59569 145.09583 L 92.59569 144.94287 z M 94.25037 144.94287 L 95.351595 144.94287 L 96.961832 147.60472 L 96.961832 145.65394 C 96.956893 145.24401 96.897744 145.14042 96.640922 145.11082 L 96.467806 145.09583 L 96.467806 144.94287 L 97.687886 144.94287 L 97.687886 145.09583 L 97.564379 145.11082 C 97.307562 145.14045 97.248369 145.23907 97.243469 145.65394 L 97.243469 148.30597 L 96.80887 148.30597 L 94.976424 145.31339 L 94.976424 147.5949 C 94.981363 148.00483 95.040512 148.10842 95.297334 148.13802 L 95.47045 148.15301 L 95.47045 148.30597 L 94.25037 148.30597 L 94.25037 148.15301 L 94.373876 148.13802 C 94.630693 148.10839 94.689887 148.00977 94.694787 147.5949 L 94.694787 145.65394 C 94.689848 145.23907 94.630698 145.14042 94.373876 145.11082 L 94.25037 145.09583 L 94.25037 144.94287 z M 104.71588 144.94287 L 105.17528 144.94287 L 106.22225 147.59025 C 106.39868 148.04604 106.45852 148.10285 106.77312 148.15197 L 106.88887 148.13802 C 107.1457 148.10839 107.20479 148.00977 107.20979 147.5949 L 107.20979 145.65394 C 107.20485 145.23907 107.14569 145.14042 106.88887 145.11082 L 106.76537 145.09583 L 106.76537 144.94287 L 108.77558 144.94287 C 109.48678 144.94287 109.9166 145.26396 109.9166 145.79243 C 109.9166 146.04925 109.80771 146.28138 109.61016 146.43942 C 109.44717 146.57275 109.30917 146.62694 109.00296 146.67144 L 109.82255 147.8321 C 109.97565 148.02965 110.10919 148.10851 110.3512 148.15301 L 110.3512 148.30597 L 109.52644 148.30597 L 108.41488 146.72054 L 107.70381 146.72054 L 107.70381 147.5949 C 107.70875 148.00977 107.7679 148.10842 108.02472 148.13802 L 108.20249 148.15301 L 108.20249 148.30597 L 106.78035 148.30597 L 106.78035 148.30649 L 105.39233 148.30649 L 105.39233 148.15301 L 105.43212 148.14836 C 105.68399 148.11378 105.78248 148.04428 105.78248 147.90599 C 105.78248 147.86648 105.76282 147.7825 105.72822 147.6936 L 105.48121 147.05695 L 104.20738 147.05695 L 104.04925 147.48121 C 103.99005 147.63925 103.9552 147.77298 103.9552 147.84708 C 103.9552 147.93598 104.00461 148.02454 104.07871 148.07394 C 104.13304 148.10844 104.21717 148.12831 104.39497 148.15301 L 104.39497 148.30649 L 103.07102 148.30649 L 103.07102 148.15301 L 103.1258 148.14319 C 103.45671 148.07898 103.53541 147.96558 103.86632 147.12103 L 104.71588 144.94287 z M 110.54395 144.94287 L 113.36393 144.94287 L 113.70448 145.8317 L 113.54687 145.89578 C 113.09249 145.33769 112.71684 145.15526 112.04515 145.15526 C 111.61053 145.15526 111.48239 145.24896 111.48239 145.56505 L 111.48239 146.40479 L 111.85756 146.40479 C 112.27737 146.40479 112.40064 146.27133 112.45494 145.77744 L 112.62289 145.77744 L 112.62289 147.25435 L 112.45494 147.25435 C 112.41049 146.80491 112.22805 146.61218 111.84775 146.61718 L 111.48239 146.61718 L 111.48239 147.65898 C 111.48239 147.81702 111.50207 147.8963 111.54647 147.9556 C 111.62549 148.04939 111.79355 148.09358 112.0405 148.09358 C 112.77639 148.09358 113.18113 147.87656 113.71947 147.18511 L 113.87243 147.25384 L 113.42336 148.30597 L 110.54395 148.30597 L 110.54395 148.15301 L 110.66746 148.13802 C 110.92429 148.10839 110.98337 148.00977 110.98837 147.5949 L 110.98837 145.65394 C 110.98343 145.23907 110.92428 145.14042 110.66746 145.11082 L 110.54395 145.09583 L 110.54395 144.94287 z M 115.48783 144.94287 L 115.94672 144.94287 L 116.99368 147.59025 C 117.17148 148.04957 117.23076 148.10361 117.55179 148.15301 L 117.55179 148.30649 L 116.16428 148.30649 L 116.16428 148.15301 L 116.20355 148.14836 C 116.45541 148.11378 116.55443 148.04428 116.55443 147.90599 C 116.55443 147.86648 116.53477 147.7825 116.50017 147.6936 L 116.25316 147.05695 L 114.97882 147.05695 L 114.82069 147.48121 C 114.76149 147.63925 114.72716 147.77298 114.72716 147.84708 C 114.72716 147.93598 114.77656 148.02454 114.85066 148.07394 C 114.90498 148.10844 114.98861 148.12831 115.16641 148.15301 L 115.16641 148.30649 L 113.84297 148.30649 L 113.84297 148.15301 L 113.89723 148.14319 C 114.22814 148.07898 114.30737 147.96558 114.63827 147.12103 L 115.48783 144.94287 z M 86.698893 145.11547 C 85.982754 145.11547 85.513435 145.70842 85.513435 146.61718 C 85.513435 147.54569 85.972647 148.13337 86.693725 148.13337 C 87.409864 148.13337 87.874532 147.56022 87.874532 146.66628 C 87.874532 145.71307 87.419971 145.11547 86.698893 145.11547 z M 90.486775 145.14544 C 90.229952 145.14544 89.983008 145.17459 89.884228 145.22399 C 89.795327 145.2635 89.75607 145.32772 89.75607 145.43638 L 89.75607 146.50815 L 90.585477 146.50815 C 90.862055 146.50815 91.040146 146.46383 91.183374 146.35518 C 91.341418 146.22677 91.435038 146.02938 91.435038 145.81207 C 91.435038 145.36757 91.118953 145.14544 90.486775 145.14544 z M 108.43503 145.14544 C 108.17821 145.14544 107.93129 145.17459 107.83249 145.22399 C 107.74357 145.2635 107.70381 145.32772 107.70381 145.43638 L 107.70381 146.50815 L 108.53374 146.50815 C 108.81032 146.50815 108.9879 146.46383 109.13112 146.35518 C 109.28921 146.22677 109.3833 146.02938 109.3833 145.81207 C 109.3833 145.36757 109.06721 145.14544 108.43503 145.14544 z M 104.82957 145.36248 L 104.28128 146.84404 L 105.39233 146.84404 L 104.82957 145.36248 z M 115.601 145.36248 L 115.05323 146.84404 L 116.16428 146.84404 L 115.601 145.36248 z " />
  </g>
</svg>
